<svg xmlns="http://www.w3.org/2000/svg" width="658" height="828.969" viewBox="0 0 658 828.969">
  <defs>
    <style>
      .cls-1 {
        fill-rule: evenodd;
      }
    </style>
  </defs>
  <path id="itintero_icon_1" data-name="itintero icon 1" class="cls-1" d="M439.451,36.1c148.279-3.26,242.6,78.473,297.9,168.941,8.179,13.381,12.224,28.187,18.554,43.266,19.416,46.25,32.625,127.484,14.431,186.453-31.165,101.01-91.384,165.048-147.4,240.021-10.183,13.629-23.827,25.534-34.016,39.145-26.522,35.427-57.23,67.629-83.494,103.013-14.09,18.982-24.353,40.229-51.54,46.356-19.913,4.487-34.256-14-41.231-23.693-23.3-32.366-51.33-61.57-75.248-93.742-10.161-13.668-23.829-25.536-34.016-39.145-20.235-27.032-44.042-51.316-63.909-78.29C213.035,592.52,186.9,557.081,163.2,518.2c-9.074-14.887-13.525-30.485-20.615-47.386-18.865-44.97-28.578-121.182-12.37-178.213,32.03-112.7,97.141-189.258,197.912-232.809,22.922-9.907,48.661-14.276,75.248-20.6C412.009,37.132,433.174,40.023,439.451,36.1Zm-44.324,73.139c-2.755,1.7-6.809.735-10.308,2.06-10.653,4.034-23.653,16.4-24.739,29.874,14.892,4.644,20,18.076,28.862,28.844l-2.061,6.18c-2.553,1.147-3.332,1.739-7.216,2.061-9.631-10.873-16.4-22.739-31.954-27.814-28.442-9.28-57.414,19.533-50.509,48.416,4.759,19.905,18.922,12.581,35.047,19.573,17.409,7.548,48.879,43.1,39.17,69.019-2.552,1.146-3.332,1.738-7.215,2.06-6.538-7.422-6.039-20.983-10.308-30.9-5.607-13.029-18.955-25.29-32.986-29.874-41.474-13.551-71.479,14.637-78.34,44.3-3.025,13.077,5.208,28,4.123,35.024-0.913,5.917-9.326,9.17-12.369,13.392-8.32,11.545-16.472,34.332-10.308,53.567a65.061,65.061,0,0,0,37.108,40.175c7.226,2.971,24.038.561,28.863,6.181,2.569,3.27,1.541,5.6,0,9.271-13.957,6.437-37.971-3.086-47.417-9.271-3.971-2.6-6.14-6.425-11.338-8.241-1.416,5.279-4.688,10.411-6.185,15.451-5.6,18.84,2.012,40.342,9.277,50.477,5.258,7.335,24.666,16.765,25.77,24.723,1.516,3.279-1.93,11.575-1.031,16.482,2.418,13.208,4.305,25.4,10.308,35.025,7.544,12.092,21.348,23.016,35.047,28.843l9.277,2.061c4.466,2.7,6.759,11.521,10.308,15.452a88.691,88.691,0,0,0,21.646,16.482c35.708,18.469,75.439-3.873,89.679-26.784,18.609-29.94,4.537-73.011-16.493-88.591-5.71-4.231-26.707-11.02-28.862-16.482-2.406-4.172,2.028-10.854,8.247-9.271,13.91,3.54,40.277,20.23,44.324,32.964h1.03V286.418c-1.854-2.2-1.513-5.572-3.092-8.241-3.123-5.277-10.759-11.865-16.493-14.421-4.29-1.914-8.391-.094-13.4-2.061-2.27-.891-6.468-4.947-5.154-9.271,4.365-14.366,33.608,5.407,38.139,8.241v-129.8C427.865,118.772,424.4,109.349,395.127,109.236Zm98.956,0c-3.572,2.237-9.262,1.372-13.4,3.09-7.145,2.968-19.827,11.47-22.678,18.543V222.55h1.031c4.32-4.763,28.657-17.289,36.078-8.241,2.569,3.27,1.541,5.6,0,9.271-15.644,6.555-27.678,1.9-35.047,18.543-6,13.561-2.062,65.649-2.062,85.5V501.716c0,29.624-3.016,64.864,7.216,84.471,13.853,26.547,56.573,52.893,93.8,29.873,8.018-4.957,17.294-12.948,22.677-20.6,2.157-3.068,3.15-8.247,6.185-10.3l11.339-3.09c12.924-5.592,25.858-16.347,32.985-27.814,10.766-17.319,6.055-35.428,10.308-55.627,18.495-5.574,31.527-25.474,36.078-45.325,2.842-12.4-3.284-37.125-9.278-40.175-8.047,11.457-33.486,22.156-52.57,18.542-1.516-2.8-4.8-6.059-2.061-10.3,2.988-4.629,9.034-1.56,15.461-3.091,10.506-2.5,20.271-6.745,27.832-12.361,16.2-12.038,28.941-43.287,17.523-70.049-4.15-9.729-12.91-18.114-19.585-25.754,9.35-42.284-.97-68.092-35.047-80.35-6.132-2.2-18.985-5.414-28.862-3.09-7.192,1.692-15.472,3.753-21.646,7.211-10.835,6.067-20.664,19.179-24.739,31.934-2.405,7.525.26,20.178-6.185,23.693-2.528,1.709-5.412.634-8.246,0-8.239-33.313,19-62.406,42.262-72.109,8.571-3.576,19.786-3.084,28.862-6.181,0.828-6.37,4.736-14.029,3.092-21.633-5.232-24.21-24.165-49.309-55.662-36.054-7.524,3.165-16.052,10.172-20.616,16.482-1.577,2.18-1.9,5.813-4.123,7.211-6.65,4.172-10.675-2.286-11.339-8.242,4.545-4.324,6.756-11.179,11.339-15.451,5.183-4.833,15.658-6.457,16.492-15.452-1.713-2.253-1.521-5.6-3.092-8.242C530.168,115.964,516.67,109.027,494.083,109.236Zm68.032,235.9c0.415,17.332,13.409,29.649,26.8,33.994,6.5,2.109,14.643-.423,18.554,4.121,2.569,3.27,1.541,5.6,0,9.271a11.28,11.28,0,0,0-3.092,2.06c-23.844-.075-40.333-10.926-49.478-25.753-3.229-5.234-3.959-19.646-9.277-22.663-2.944-1.744-7.631-.852-11.339-2.06-9.9-3.228-28.493-10.03-31.955-19.573-3.364-5.122,2.642-9.179,8.247-9.271,27.1,28.151,76.358,17.455,94.832-10.3,3.986-5.988,7.271-15.365,9.278-22.663,1.51-5.5-.957-9.782,3.092-12.362,3.248-2.069,6.427-.04,9.277,1.03,3.8,9.727-1.99,23.842-6.185,31.935C610.222,323.442,592.129,344.751,562.115,345.136ZM299.264,277.147c4.294,0.212,5.313.671,7.215,3.091,4.19,5.8,2.3,17.866,5.154,24.723,8.43,20.261,36.267,46.622,71.125,36.054,12.427-3.767,21.423-15.651,32.985-17.512,2.736,2.869,4.36,3.027,5.154,8.241-14.4,14.532-23.949,19.793-48.447,24.723-0.27,26.21-29.114,52.21-57.724,46.356-2.051-3.669-5.05-8.962,0-12.361l17.523-2.061c13.873-4.489,24.632-15.6,26.8-31.934q-0.516-.514-1.031-1.03c-32.478-.446-69.578-39.868-62.878-75.2A18.629,18.629,0,0,0,299.264,277.147ZM561.084,484.2c11.463-1.409,21.477-.5,16.493,11.331-8.681,3.675-21.4,2.6-29.893,6.181-14.158,5.974-26.544,20.3-31.954,35.024-2.771,7.539-1.435,18.744-4.123,25.754-2.553,1.146-3.333,1.738-7.216,2.06-6.3-6.656-5.741-19.916-2.062-30.9,6.246-18.652,23.591-42.713,45.355-45.326,0.409-36-17.859-57.1-45.355-64.9l-18.554-2.06c-2.949-4.553-4.829-10.028,2.062-12.362,7.729-4.621,25.383,3.825,30.923,6.181C542.272,426.035,561.7,447.554,561.084,484.2ZM378.635,426.516c6.33-.287,10.734-0.266,13.4,3.091,2.569,3.27,1.541,5.6,0,9.271-6.84,2.837-18.281,1.387-25.77,4.12-26.139,9.538-39.981,31.04-39.17,64.9,20.386,5.136,55.2,44.475,44.324,72.109-4.406,1.8-5.9,1.806-10.308,0-3-7.11-2.092-18.47-5.154-25.754-11.342-26.98-28.077-33.182-60.816-39.145-7.722-11.968,5.59-16,17.523-11.331V491.414c1.812-2.887.876-7.641,2.062-11.331,2.369-7.378,6.131-16.393,10.307-22.663,6.263-9.4,19.044-20.137,29.893-24.723C361.218,430.038,373.2,429.926,378.635,426.516Z" transform="translate(-121.5 -35.5)"/>
</svg>
